<svg width="117" height="77" viewBox="0 0 117 77" fill="none" xmlns="http://www.w3.org/2000/svg">
<path d="M102.752 0L116.848 15H98.6241L102.752 0Z" fill="#262A97" fill-opacity="0.4"/>
<path d="M0 0H102.912L83.616 77H0V0Z" fill="#03396A"/>
<path d="M54.0963 40.794L52.8244 52.9757C52.7502 53.685 52.4592 54.3486 51.9963 54.8646C51.5334 55.3806 50.9241 55.7203 50.2622 55.8315L25.5977 59.98C25.3595 60.0201 25.1157 59.9997 24.8863 59.9203C24.6569 59.8409 24.4484 59.7048 24.2778 59.5231C24.1072 59.3415 23.9795 59.1194 23.9049 58.8751C23.8303 58.6308 23.8111 58.3711 23.8488 58.1174L27.744 31.8522C27.8485 31.1473 28.1674 30.4984 28.6519 30.0054C29.1364 29.5124 29.7595 29.2025 30.4254 29.1235L41.8665 27.7688M54.0963 40.794L41.8665 27.7688M54.0963 40.794L63.2687 34.2814M41.8665 27.7688L47.9814 18M25.0504 58.7035L37.2803 45.6784M34.2228 42.4221L40.3377 48.9347" stroke="white" stroke-width="2" stroke-linecap="round" stroke-linejoin="round"/>
</svg>
