<svg width="40" height="40" viewBox="0 0 40 40" fill="none" xmlns="http://www.w3.org/2000/svg">
<path d="M12.4957 36.341C12.3944 36.341 12.2915 36.3233 12.191 36.2859C8.6477 34.9656 5.61698 32.6319 3.42651 29.5371C1.18484 26.3703 0 22.6377 0 18.7429V18.7302C0 13.7271 1.94825 9.02357 5.48595 5.48595C9.02357 1.94825 13.7271 0 18.7302 0C23.7332 0 28.4367 1.94825 31.9744 5.48595C35.3054 8.81698 37.2274 13.1821 37.4405 17.8571H39.127C39.4602 17.8571 39.7642 18.0467 39.9109 18.346C40.0575 18.6452 40.0211 19.0017 39.817 19.265L34.8964 25.6142C34.731 25.8275 34.4764 25.9524 34.2064 25.9524C33.9364 25.9524 33.6817 25.8275 33.5164 25.6141L28.5957 19.2649C28.3917 19.0016 28.3552 18.6451 28.5018 18.3459C28.6485 18.0467 28.9525 17.8571 29.2857 17.8571H30.9215C30.4721 11.5239 25.1759 6.50794 18.7302 6.50794C11.9908 6.50794 6.50794 11.9908 6.50794 18.7302C6.50794 22.4372 8.16349 25.9025 11.0501 28.2375C11.4249 28.5406 11.483 29.0904 11.1798 29.4652C10.8766 29.8401 10.3268 29.8982 9.95198 29.5949C6.65365 26.9269 4.7619 22.9668 4.7619 18.7302C4.7619 11.028 11.028 4.7619 18.7302 4.7619C26.4323 4.7619 32.6984 11.028 32.6984 18.7302C32.6984 19.2123 32.3075 19.6032 31.8254 19.6032H31.0667L34.2064 23.6542L37.346 19.6032H36.5873C36.1052 19.6032 35.7143 19.2123 35.7143 18.7302C35.7143 9.36508 28.0952 1.74603 18.7302 1.74603C9.36508 1.74603 1.74603 9.36508 1.74603 18.7302V18.7429C1.74603 25.7933 6.18857 32.1859 12.8006 34.6498C13.2525 34.8181 13.4822 35.3209 13.3139 35.7726C13.183 36.124 12.8498 36.341 12.4957 36.341Z" fill="#282C4B"/>
<path d="M20.0003 40C14.2675 40 9.60352 35.336 9.60352 29.6031C9.60352 23.8703 14.2675 19.2063 20.0003 19.2063C25.7331 19.2063 30.3972 23.8703 30.3972 29.6031C30.3972 35.336 25.7332 40 20.0003 40ZM20.0003 20.9523C15.2303 20.9523 11.3495 24.833 11.3495 29.6031C11.3495 34.3732 15.2303 38.2539 20.0003 38.2539C24.7704 38.2539 28.6511 34.3732 28.6511 29.6031C28.6511 24.833 24.7704 20.9523 20.0003 20.9523Z" fill="#282C4B"/>
<path d="M23.4238 32.1534C23.4238 31.1018 22.8788 29.6623 20.2823 28.7769C19.3885 28.4721 18.3232 27.9256 18.3232 27.0529C18.3232 26.1281 19.0756 25.3757 20.0004 25.3757C20.4463 25.3757 20.8687 25.5512 21.19 25.8697C21.5323 26.2093 22.0851 26.207 22.4246 25.8647C22.7641 25.5223 22.7619 24.9696 22.4196 24.63C21.9825 24.1966 21.451 23.8947 20.8735 23.7427V23.2275C20.8735 22.7454 20.4827 22.3545 20.0005 22.3545C19.5184 22.3545 19.1275 22.7454 19.1275 23.2275V23.7428C17.6615 24.1298 16.5773 25.467 16.5773 27.0529C16.5773 28.1046 17.1223 29.544 19.7188 30.4294C20.6124 30.7342 21.6778 31.2807 21.6778 32.1534C21.6778 33.0782 20.9254 33.8306 20.0005 33.8306C18.8934 33.8306 17.9513 33.2404 17.9257 33.2242C17.5227 32.9625 16.9834 33.0757 16.7199 33.4782C16.4557 33.8816 16.5687 34.4227 16.9721 34.6868C17.0173 34.7164 17.9059 35.2896 19.1276 35.5V35.9788C19.1276 36.4609 19.5184 36.8518 20.0006 36.8518C20.4827 36.8518 20.8736 36.4609 20.8736 35.9788V35.4635C22.3396 35.0765 23.4238 33.7393 23.4238 32.1534Z" fill="#282C4B"/>
</svg>
